<svg version="1.1" id="Layer_1" xmlns="http://www.w3.org/2000/svg" xmlns:xlink="http://www.w3.org/1999/xlink" x="0px" y="0px"
	 width="100%" viewBox="0 0 1254 1254" enable-background="new 0 0 1254 1254" xml:space="preserve">
<path fill="none" opacity="1.000000" stroke="none" 
	d="
M829.000000,1255.000000 
	C552.666687,1255.000000 276.833344,1255.000000 1.000000,1255.000000 
	C1.000000,837.000000 1.000000,419.000000 1.000000,1.000000 
	C419.000000,1.000000 837.000000,1.000000 1255.000000,1.000000 
	C1255.000000,419.000000 1255.000000,837.000000 1255.000000,1255.000000 
	C1113.166626,1255.000000 971.333313,1255.000000 829.000000,1255.000000 
M673.620361,822.726440 
	C684.592346,812.118958 695.172852,801.066223 706.621338,791.000732 
	C727.632690,772.527771 752.801941,761.891602 779.309448,753.906250 
	C802.830078,746.820801 826.459106,739.968933 849.574951,731.711365 
	C864.542297,726.364563 880.273987,720.917480 887.874573,704.612366 
	C888.290710,703.719788 888.950623,702.937317 889.522461,702.121399 
	C906.609436,677.742798 920.108765,651.461731 930.543213,623.633728 
	C934.822693,612.220520 938.252625,600.488831 942.637268,587.177063 
	C928.764832,590.046082 916.357117,592.024597 904.275818,595.232605 
	C878.898315,601.971375 855.181213,612.696289 832.806335,626.476807 
	C813.365540,638.450195 795.471802,652.318176 778.550110,667.666138 
	C762.237427,682.461548 747.103882,698.295227 733.432556,715.467102 
	C712.340515,741.959717 694.534790,770.566162 680.807190,801.582642 
	C677.739929,808.512878 675.561218,815.836426 672.693359,823.093262 
	C672.648987,823.187744 672.604614,823.282227 672.560242,823.376709 
	C672.713440,823.259583 672.866577,823.142395 673.620361,822.726440 
M467.010742,645.376160 
	C467.206909,645.353638 467.403046,645.331177 467.599213,645.308533 
	C467.385712,645.219421 467.172211,645.130310 467.257385,644.232666 
	C466.956757,642.598450 466.711029,640.951904 466.347473,639.331848 
	C457.631744,600.493225 454.415070,561.220215 460.134216,521.773010 
	C463.611328,497.790192 469.598175,474.174133 474.260284,450.354675 
	C474.623138,448.500732 474.116730,445.583954 472.854553,444.433533 
	C424.051605,399.950104 367.963257,369.544922 302.671448,357.278351 
	C293.121002,355.484070 283.377533,354.717041 274.011414,353.511780 
	C273.470032,354.814545 273.269440,355.102264 273.234589,355.408783 
	C264.783325,429.736633 274.624573,501.568451 302.818634,570.851257 
	C303.387024,572.247986 305.460602,573.630981 307.031708,573.914734 
	C313.087494,575.008850 319.268494,575.409912 325.324432,576.503418 
	C372.161865,584.960754 413.699585,605.157837 451.475494,633.654358 
	C456.593079,637.514893 461.843811,641.198853 467.010742,645.376160 
M559.523621,244.022888 
	C540.784546,273.691376 524.704285,304.690735 512.461731,337.631378 
	C500.562744,369.647827 492.461212,402.553894 488.814087,436.543030 
	C488.460114,439.841980 489.333191,441.944275 491.993835,444.144806 
	C499.692108,450.511597 507.259216,457.074860 514.472290,463.984375 
	C557.791565,505.480255 591.496033,553.527039 612.735291,609.874146 
	C617.567261,622.693237 621.415161,635.883301 625.849182,649.305908 
	C627.592224,643.303345 629.123047,637.535828 630.937317,631.858887 
	C655.042603,556.433105 698.625732,494.283936 759.362244,443.899109 
	C761.867432,441.820892 762.659912,439.915344 762.378967,436.748993 
	C757.643066,383.374146 741.524902,333.387054 717.467407,285.788727 
	C694.020630,239.398926 663.491455,197.843857 629.974854,158.348862 
	C628.714661,156.863861 627.896057,155.004166 626.662903,152.975739 
	C601.493347,182.681152 579.466370,212.130768 559.523621,244.022888 
M349.983002,767.521667 
	C357.640137,773.661865 364.702576,780.819275 373.084503,785.719788 
	C388.134827,794.518921 403.888885,802.141174 419.520477,809.910034 
	C430.001923,815.119141 440.610168,820.116699 448.450073,829.092651 
	C452.013214,833.172058 455.271912,837.778625 457.525024,842.672607 
	C460.131104,848.333191 457.766632,851.590698 451.625671,851.200317 
	C445.181915,850.790588 438.680664,849.921875 432.407990,848.409851 
	C397.933441,840.099548 369.148560,821.668823 343.871704,797.421570 
	C311.813568,766.669128 286.752411,730.689392 266.000519,691.584229 
	C257.027863,674.675964 248.280487,657.646606 239.166428,640.815430 
	C235.022308,633.162354 229.990433,626.029236 222.052063,621.725464 
	C216.098007,618.497437 209.840576,617.881226 204.052414,621.867798 
	C198.443085,625.731140 197.598206,631.617737 198.657532,637.926392 
	C207.201218,688.807251 222.936722,737.408630 245.058380,783.971436 
	C286.186401,870.540100 350.738770,933.265564 437.648468,973.309875 
	C476.592560,991.253601 516.804138,1005.761658 557.826477,1018.063904 
	C572.166870,1022.364380 586.685425,1026.119385 601.238525,1029.644775 
	C610.413940,1031.867432 614.942871,1027.877808 614.958313,1018.519958 
	C614.974304,1008.853638 615.072144,999.184204 614.877441,989.521362 
	C614.154480,953.638916 608.856934,918.548035 596.081299,884.836853 
	C577.522339,835.865112 545.489258,798.974976 497.232269,777.670898 
	C481.476166,770.715149 464.678925,765.829651 448.003021,761.304871 
	C412.544220,751.683655 378.345215,739.543518 348.479858,717.369507 
	C346.507233,715.904968 344.162079,714.798889 341.829651,713.987793 
	C333.312225,711.025696 325.037048,716.095947 324.666931,725.096497 
	C324.497803,729.209412 325.818207,733.679016 327.520599,737.517822 
	C332.591461,748.951904 340.720245,758.254333 349.983002,767.521667 
M777.230591,988.753113 
	C798.904419,978.525146 821.102722,969.266968 842.150757,957.882141 
	C898.793213,927.244324 944.636230,884.670288 979.240234,830.181763 
	C1011.372986,779.584412 1032.111328,724.354492 1045.882812,666.310303 
	C1048.338623,655.959656 1050.712646,645.516174 1051.981689,634.977966 
	C1053.255859,624.397400 1045.021729,617.406738 1034.605469,619.831909 
	C1030.421631,620.806030 1026.031006,623.002136 1022.906250,625.903992 
	C1018.582458,629.919373 1014.878967,634.829163 1011.785278,639.890991 
	C1006.843750,647.976135 1002.420593,656.398987 998.131226,664.858093 
	C979.559631,701.482910 959.177002,736.962158 932.928772,768.757019 
	C910.679565,795.707764 885.643860,819.417969 854.060608,835.271057 
	C836.990601,843.839172 819.227234,850.372681 799.856812,851.079346 
	C792.525085,851.346741 790.636536,848.428833 793.522949,841.496826 
	C796.874390,833.447937 802.291443,826.713867 809.553040,822.124878 
	C818.369080,816.553467 827.582336,811.464539 837.060059,807.118042 
	C854.197021,799.259033 871.184021,791.240662 886.197937,779.649780 
	C901.528015,767.814819 914.904419,754.214294 923.350464,736.505249 
	C927.555969,727.687561 926.638672,720.386230 921.626526,716.184631 
	C916.097412,711.549622 909.794495,712.281006 901.028137,718.045471 
	C892.408508,723.713501 883.831421,729.527344 874.786438,734.452209 
	C848.238342,748.907104 819.368286,757.163452 790.371277,764.886353 
	C760.189575,772.924805 732.289307,785.342407 708.709106,806.277527 
	C671.809570,839.037598 651.836853,881.047729 642.059570,928.617554 
	C636.011658,958.042969 635.751038,987.844055 636.000061,1017.691101 
	C636.091248,1028.616333 640.044189,1031.916992 650.655090,1029.456543 
	C693.726318,1019.469360 735.456665,1005.297241 777.230591,988.753113 
M790.484985,603.886414 
	C788.303162,617.677185 786.121277,631.468018 783.860718,645.756287 
	C830.626282,607.018616 882.355591,580.862610 942.836487,574.062988 
	C944.540405,573.871399 946.771423,571.779724 947.455688,570.057190 
	C972.629395,506.681213 984.199158,441.122681 978.662170,372.873901 
	C978.155701,366.631470 977.594849,360.393433 977.047791,354.020172 
	C975.648071,354.020172 974.813171,353.893982 974.028198,354.038696 
	C955.223694,357.504761 936.107910,359.810303 917.684448,364.714844 
	C864.407654,378.897705 818.849609,407.170685 778.448608,444.152893 
	C777.248169,445.251709 776.928284,448.314148 777.427124,450.121826 
	C791.269043,500.276764 796.779480,551.126282 790.484985,603.886414 
M481.200836,473.855225 
	C478.107910,494.639221 474.527863,515.365417 472.053162,536.222778 
	C469.341156,559.080017 470.501221,582.053589 473.333893,604.824219 
	C475.129120,619.255249 478.547729,633.481201 481.125580,647.819336 
	C482.515137,655.548279 485.786682,661.832581 491.656036,667.468262 
	C501.952026,677.354492 511.671906,687.897583 521.037537,698.682739 
	C536.200439,716.143860 549.379395,735.082825 561.082520,755.043884 
	C563.943176,759.922974 567.075684,764.642700 569.902466,769.147827 
	C570.314331,761.462158 569.679016,753.675171 571.317871,746.400513 
	C576.323730,724.181335 589.859741,709.326721 612.054688,703.025024 
	C619.319275,700.962463 619.814697,701.136780 618.917542,693.771057 
	C617.358643,680.970520 616.113953,668.025574 613.127136,655.526001 
	C605.672852,624.329773 593.873901,594.750000 577.978149,566.799866 
	C555.853821,527.897644 528.400696,493.336700 494.978516,463.551422 
	C492.417938,461.269470 489.637207,459.234497 486.118195,456.410065 
	C484.441223,462.433258 482.960419,467.751953 481.200836,473.855225 
M671.493103,569.964783 
	C670.256775,572.128967 668.958191,574.260193 667.793945,576.462463 
	C657.659607,595.632324 649.432556,615.592163 643.048340,636.314819 
	C637.068970,655.723328 634.089539,675.675842 631.908508,695.805847 
	C631.349182,700.967590 633.696228,702.280273 638.055420,703.032593 
	C658.265930,706.520020 677.644165,726.931335 679.949707,747.355347 
	C680.801575,754.901672 680.789978,762.545349 681.191162,770.522095 
	C681.396973,770.138184 681.598572,769.688721 681.862854,769.279907 
	C692.852783,752.276062 703.407959,734.969727 714.955444,718.353088 
	C729.211853,697.838379 745.892517,679.329956 764.503845,662.599609 
	C765.649353,661.569885 766.513428,659.904541 766.878601,658.383667 
	C768.697327,650.809570 770.756287,643.251648 771.896484,635.564392 
	C774.542114,617.726685 777.600342,599.877991 778.810730,581.920532 
	C779.957031,564.913696 779.703186,547.717712 778.674988,530.688843 
	C777.840332,516.864258 775.278564,503.105164 772.858337,489.427490 
	C770.937988,478.574677 768.072205,467.889160 765.357117,455.945831 
	C760.769714,459.852875 756.776001,462.738708 753.398438,466.222046 
	C740.226562,479.806366 726.780945,493.168762 714.316345,507.384583 
	C697.738098,526.291992 683.913208,547.238892 671.493103,569.964783 
M546.149170,756.353333 
	C533.209229,734.782837 518.342285,714.568237 501.357086,696.081482 
	C479.259247,672.030151 454.984924,650.282776 427.536316,632.410889 
	C402.748352,616.271301 376.230499,603.664307 347.737427,595.406799 
	C335.195007,591.771851 322.563599,588.716675 309.039246,588.701050 
	C309.253571,590.066711 309.340576,591.193481 309.613159,592.273438 
	C315.293060,614.776794 323.340210,636.533569 334.270142,656.874390 
	C344.699036,676.282837 357.218506,694.571960 368.950439,713.270752 
	C370.307922,715.434265 372.188629,717.627380 374.362793,718.865845 
	C398.684540,732.720459 425.199615,740.722839 451.954071,748.334656 
	C469.971680,753.460815 488.037567,759.012939 505.196472,766.424377 
	C532.090576,778.040710 554.484802,796.310608 573.764832,818.346680 
	C574.787170,819.515015 575.791870,820.698792 576.804749,821.875305 
	C577.228271,821.619690 577.651794,821.364014 578.075317,821.108337 
	C569.797119,798.667419 559.604797,777.137390 546.149170,756.353333 
M670.705383,757.493958 
	C670.481140,755.345337 670.308228,753.190002 670.024719,751.049194 
	C667.384766,731.114319 652.051208,715.759399 631.630981,712.577148 
	C612.289124,709.562927 594.007568,719.418518 585.359985,737.521790 
	C576.765442,755.513916 580.855713,777.724243 595.595703,790.569031 
	C609.508301,802.692627 625.478943,805.644714 642.563965,798.574768 
	C660.245056,791.258240 669.127502,777.237671 670.705383,757.493958 
M656.804199,827.242126 
	C661.459229,815.054016 666.114258,802.865906 671.137939,789.712402 
	C641.273315,819.562622 611.752014,819.556458 581.649414,792.177795 
	C590.123718,817.047729 599.238831,841.388550 606.653687,866.236755 
	C614.067627,891.081665 619.780945,916.434082 626.117554,941.088806 
	C632.937622,902.953369 643.172913,865.042908 656.804199,827.242126 
M671.483887,788.608093 
	C671.483887,788.608093 671.408997,788.483643 671.483887,788.608093 
M580.413208,790.489563 
	C580.413208,790.489563 580.519836,790.424927 580.413208,790.489563 
M578.409058,823.477356 
	C578.409058,823.477356 578.519470,823.407959 578.409058,823.477356 
M671.427490,825.478271 
	C671.427490,825.478271 671.521851,825.422852 671.427490,825.478271 
z"/>
<path fill="#417A26" opacity="1.000000" stroke="none" 
	d="
M559.710815,243.710831 
	C579.466370,212.130768 601.493347,182.681152 626.662903,152.975739 
	C627.896057,155.004166 628.714661,156.863861 629.974854,158.348862 
	C663.491455,197.843857 694.020630,239.398926 717.467407,285.788727 
	C741.524902,333.387054 757.643066,383.374146 762.378967,436.748993 
	C762.659912,439.915344 761.867432,441.820892 759.362244,443.899109 
	C698.625732,494.283936 655.042603,556.433105 630.937317,631.858887 
	C629.123047,637.535828 627.592224,643.303345 625.849182,649.305908 
	C621.415161,635.883301 617.567261,622.693237 612.735291,609.874146 
	C591.496033,553.527039 557.791565,505.480255 514.472290,463.984375 
	C507.259216,457.074860 499.692108,450.511597 491.993835,444.144806 
	C489.333191,441.944275 488.460114,439.841980 488.814087,436.543030 
	C492.461212,402.553894 500.562744,369.647827 512.461731,337.631378 
	C524.704285,304.690735 540.784546,273.691376 559.710815,243.710831 
z"/>
<path fill="#074F66" opacity="1.000000" stroke="none" 
	d="
M349.732056,767.270996 
	C340.720245,758.254333 332.591461,748.951904 327.520599,737.517822 
	C325.818207,733.679016 324.497803,729.209412 324.666931,725.096497 
	C325.037048,716.095947 333.312225,711.025696 341.829651,713.987793 
	C344.162079,714.798889 346.507233,715.904968 348.479858,717.369507 
	C378.345215,739.543518 412.544220,751.683655 448.003021,761.304871 
	C464.678925,765.829651 481.476166,770.715149 497.232269,777.670898 
	C545.489258,798.974976 577.522339,835.865112 596.081299,884.836853 
	C608.856934,918.548035 614.154480,953.638916 614.877441,989.521362 
	C615.072144,999.184204 614.974304,1008.853638 614.958313,1018.519958 
	C614.942871,1027.877808 610.413940,1031.867432 601.238525,1029.644775 
	C586.685425,1026.119385 572.166870,1022.364380 557.826477,1018.063904 
	C516.804138,1005.761658 476.592560,991.253601 437.648468,973.309875 
	C350.738770,933.265564 286.186401,870.540100 245.058380,783.971436 
	C222.936722,737.408630 207.201218,688.807251 198.657532,637.926392 
	C197.598206,631.617737 198.443085,625.731140 204.052414,621.867798 
	C209.840576,617.881226 216.098007,618.497437 222.052063,621.725464 
	C229.990433,626.029236 235.022308,633.162354 239.166428,640.815430 
	C248.280487,657.646606 257.027863,674.675964 266.000519,691.584229 
	C286.752411,730.689392 311.813568,766.669128 343.871704,797.421570 
	C369.148560,821.668823 397.933441,840.099548 432.407990,848.409851 
	C438.680664,849.921875 445.181915,850.790588 451.625671,851.200317 
	C457.766632,851.590698 460.131104,848.333191 457.525024,842.672607 
	C455.271912,837.778625 452.013214,833.172058 448.450073,829.092651 
	C440.610168,820.116699 430.001923,815.119141 419.520477,809.910034 
	C403.888885,802.141174 388.134827,794.518921 373.084503,785.719788 
	C364.702576,780.819275 357.640137,773.661865 349.732056,767.270996 
z"/>
<path fill="#075066" opacity="1.000000" stroke="none" 
	d="
M776.862976,988.867676 
	C735.456665,1005.297241 693.726318,1019.469360 650.655090,1029.456543 
	C640.044189,1031.916992 636.091248,1028.616333 636.000061,1017.691101 
	C635.751038,987.844055 636.011658,958.042969 642.059570,928.617554 
	C651.836853,881.047729 671.809570,839.037598 708.709106,806.277527 
	C732.289307,785.342407 760.189575,772.924805 790.371277,764.886353 
	C819.368286,757.163452 848.238342,748.907104 874.786438,734.452209 
	C883.831421,729.527344 892.408508,723.713501 901.028137,718.045471 
	C909.794495,712.281006 916.097412,711.549622 921.626526,716.184631 
	C926.638672,720.386230 927.555969,727.687561 923.350464,736.505249 
	C914.904419,754.214294 901.528015,767.814819 886.197937,779.649780 
	C871.184021,791.240662 854.197021,799.259033 837.060059,807.118042 
	C827.582336,811.464539 818.369080,816.553467 809.553040,822.124878 
	C802.291443,826.713867 796.874390,833.447937 793.522949,841.496826 
	C790.636536,848.428833 792.525085,851.346741 799.856812,851.079346 
	C819.227234,850.372681 836.990601,843.839172 854.060608,835.271057 
	C885.643860,819.417969 910.679565,795.707764 932.928772,768.757019 
	C959.177002,736.962158 979.559631,701.482910 998.131226,664.858093 
	C1002.420593,656.398987 1006.843750,647.976135 1011.785278,639.890991 
	C1014.878967,634.829163 1018.582458,629.919373 1022.906250,625.903992 
	C1026.031006,623.002136 1030.421631,620.806030 1034.605469,619.831909 
	C1045.021729,617.406738 1053.255859,624.397400 1051.981689,634.977966 
	C1050.712646,645.516174 1048.338623,655.959656 1045.882812,666.310303 
	C1032.111328,724.354492 1011.372986,779.584412 979.240234,830.181763 
	C944.636230,884.670288 898.793213,927.244324 842.150757,957.882141 
	C821.102722,969.266968 798.904419,978.525146 776.862976,988.867676 
z"/>
<path fill="#417A26" opacity="1.000000" stroke="none" 
	d="
M467.032867,644.964600 
	C461.843811,641.198853 456.593079,637.514893 451.475494,633.654358 
	C413.699585,605.157837 372.161865,584.960754 325.324432,576.503418 
	C319.268494,575.409912 313.087494,575.008850 307.031708,573.914734 
	C305.460602,573.630981 303.387024,572.247986 302.818634,570.851257 
	C274.624573,501.568451 264.783325,429.736633 273.234589,355.408783 
	C273.269440,355.102264 273.470032,354.814545 274.011414,353.511780 
	C283.377533,354.717041 293.121002,355.484070 302.671448,357.278351 
	C367.963257,369.544922 424.051605,399.950104 472.854553,444.433533 
	C474.116730,445.583954 474.623138,448.500732 474.260284,450.354675 
	C469.598175,474.174133 463.611328,497.790192 460.134216,521.773010 
	C454.415070,561.220215 457.631744,600.493225 466.347473,639.331848 
	C466.711029,640.951904 466.956757,642.598450 467.126648,644.617920 
	C466.995941,645.003113 467.032867,644.964600 467.032867,644.964600 
z"/>
<path fill="#417A27" opacity="1.000000" stroke="none" 
	d="
M790.549561,603.441284 
	C796.779480,551.126282 791.269043,500.276764 777.427124,450.121826 
	C776.928284,448.314148 777.248169,445.251709 778.448608,444.152893 
	C818.849609,407.170685 864.407654,378.897705 917.684448,364.714844 
	C936.107910,359.810303 955.223694,357.504761 974.028198,354.038696 
	C974.813171,353.893982 975.648071,354.020172 977.047791,354.020172 
	C977.594849,360.393433 978.155701,366.631470 978.662170,372.873901 
	C984.199158,441.122681 972.629395,506.681213 947.455688,570.057190 
	C946.771423,571.779724 944.540405,573.871399 942.836487,574.062988 
	C882.355591,580.862610 830.626282,607.018616 783.860718,645.756287 
	C786.121277,631.468018 788.303162,617.677185 790.549561,603.441284 
z"/>
<path fill="#FDE7C0" opacity="1.000000" stroke="none" 
	d="
M481.340210,473.462921 
	C482.960419,467.751953 484.441223,462.433258 486.118195,456.410065 
	C489.637207,459.234497 492.417938,461.269470 494.978516,463.551422 
	C528.400696,493.336700 555.853821,527.897644 577.978149,566.799866 
	C593.873901,594.750000 605.672852,624.329773 613.127136,655.526001 
	C616.113953,668.025574 617.358643,680.970520 618.917542,693.771057 
	C619.814697,701.136780 619.319275,700.962463 612.054688,703.025024 
	C589.859741,709.326721 576.323730,724.181335 571.317871,746.400513 
	C569.679016,753.675171 570.314331,761.462158 569.902466,769.147827 
	C567.075684,764.642700 563.943176,759.922974 561.082520,755.043884 
	C549.379395,735.082825 536.200439,716.143860 521.037537,698.682739 
	C511.671906,687.897583 501.952026,677.354492 491.656036,667.468262 
	C485.786682,661.832581 482.515137,655.548279 481.125580,647.819336 
	C478.547729,633.481201 475.129120,619.255249 473.333893,604.824219 
	C470.501221,582.053589 469.341156,559.080017 472.053162,536.222778 
	C474.527863,515.365417 478.107910,494.639221 481.340210,473.462921 
z"/>
<path fill="#FDE7C0" opacity="1.000000" stroke="none" 
	d="
M671.666138,569.638916 
	C683.913208,547.238892 697.738098,526.291992 714.316345,507.384583 
	C726.780945,493.168762 740.226562,479.806366 753.398438,466.222046 
	C756.776001,462.738708 760.769714,459.852875 765.357117,455.945831 
	C768.072205,467.889160 770.937988,478.574677 772.858337,489.427490 
	C775.278564,503.105164 777.840332,516.864258 778.674988,530.688843 
	C779.703186,547.717712 779.957031,564.913696 778.810730,581.920532 
	C777.600342,599.877991 774.542114,617.726685 771.896484,635.564392 
	C770.756287,643.251648 768.697327,650.809570 766.878601,658.383667 
	C766.513428,659.904541 765.649353,661.569885 764.503845,662.599609 
	C745.892517,679.329956 729.211853,697.838379 714.955444,718.353088 
	C703.407959,734.969727 692.852783,752.276062 681.862854,769.279907 
	C681.598572,769.688721 681.396973,770.138184 681.191162,770.522095 
	C680.789978,762.545349 680.801575,754.901672 679.949707,747.355347 
	C677.644165,726.931335 658.265930,706.520020 638.055420,703.032593 
	C633.696228,702.280273 631.349182,700.967590 631.908508,695.805847 
	C634.089539,675.675842 637.068970,655.723328 643.048340,636.314819 
	C649.432556,615.592163 657.659607,595.632324 667.793945,576.462463 
	C668.958191,574.260193 670.256775,572.128967 671.666138,569.638916 
z"/>
<path fill="#FDE7C0" opacity="1.000000" stroke="none" 
	d="
M546.320435,756.675171 
	C559.604797,777.137390 569.797119,798.667419 578.075317,821.108337 
	C577.651794,821.364014 577.228271,821.619690 576.804749,821.875305 
	C575.791870,820.698792 574.787170,819.515015 573.764832,818.346680 
	C554.484802,796.310608 532.090576,778.040710 505.196472,766.424377 
	C488.037567,759.012939 469.971680,753.460815 451.954071,748.334656 
	C425.199615,740.722839 398.684540,732.720459 374.362793,718.865845 
	C372.188629,717.627380 370.307922,715.434265 368.950439,713.270752 
	C357.218506,694.571960 344.699036,676.282837 334.270142,656.874390 
	C323.340210,636.533569 315.293060,614.776794 309.613159,592.273438 
	C309.340576,591.193481 309.253571,590.066711 309.039246,588.701050 
	C322.563599,588.716675 335.195007,591.771851 347.737427,595.406799 
	C376.230499,603.664307 402.748352,616.271301 427.536316,632.410889 
	C454.984924,650.282776 479.259247,672.030151 501.357086,696.081482 
	C518.342285,714.568237 533.209229,734.782837 546.320435,756.675171 
z"/>
<path fill="#FDE7C1" opacity="1.000000" stroke="none" 
	d="
M672.973389,822.978882 
	C675.561218,815.836426 677.739929,808.512878 680.807190,801.582642 
	C694.534790,770.566162 712.340515,741.959717 733.432556,715.467102 
	C747.103882,698.295227 762.237427,682.461548 778.550110,667.666138 
	C795.471802,652.318176 813.365540,638.450195 832.806335,626.476807 
	C855.181213,612.696289 878.898315,601.971375 904.275818,595.232605 
	C916.357117,592.024597 928.764832,590.046082 942.637268,587.177063 
	C938.252625,600.488831 934.822693,612.220520 930.543213,623.633728 
	C920.108765,651.461731 906.609436,677.742798 889.522461,702.121399 
	C888.950623,702.937317 888.290710,703.719788 887.874573,704.612366 
	C880.273987,720.917480 864.542297,726.364563 849.574951,731.711365 
	C826.459106,739.968933 802.830078,746.820801 779.309448,753.906250 
	C752.801941,761.891602 727.632690,772.527771 706.621338,791.000732 
	C695.172852,801.066223 684.592346,812.118958 673.309570,822.863220 
	C672.998779,823.000000 672.973389,822.978882 672.973389,822.978882 
z"/>
<path fill="#EB8110" opacity="1.000000" stroke="none" 
	d="
M670.709717,757.934998 
	C669.127502,777.237671 660.245056,791.258240 642.563965,798.574768 
	C625.478943,805.644714 609.508301,802.692627 595.595703,790.569031 
	C580.855713,777.724243 576.765442,755.513916 585.359985,737.521790 
	C594.007568,719.418518 612.289124,709.562927 631.630981,712.577148 
	C652.051208,715.759399 667.384766,731.114319 670.024719,751.049194 
	C670.308228,753.190002 670.481140,755.345337 670.709717,757.934998 
z"/>
<path fill="#FDE7C1" opacity="1.000000" stroke="none" 
	d="
M656.655884,827.606323 
	C643.172913,865.042908 632.937622,902.953369 626.117554,941.088806 
	C619.780945,916.434082 614.067627,891.081665 606.653687,866.236755 
	C599.238831,841.388550 590.123718,817.047729 581.649414,792.177795 
	C611.752014,819.556458 641.273315,819.562622 671.137939,789.712402 
	C666.114258,802.865906 661.459229,815.054016 656.655884,827.606323 
z"/>
<path fill="#417A26" opacity="1.000000" stroke="none" 
	d="
M466.977356,645.022156 
	C467.172211,645.130310 467.385712,645.219421 467.599182,645.308594 
	C467.403046,645.331177 467.206909,645.353638 467.021790,645.170410 
	C467.032867,644.964600 466.995941,645.003113 466.977356,645.022156 
z"/>
<path fill="#FDE7C1" opacity="1.000000" stroke="none" 
	d="
M671.446411,788.545898 
	C671.408997,788.483643 671.483887,788.608093 671.446411,788.545898 
z"/>
<path fill="#FDE7C1" opacity="1.000000" stroke="none" 
	d="
M580.466553,790.457275 
	C580.519836,790.424927 580.413208,790.489563 580.466553,790.457275 
z"/>
<path fill="#FDE7C0" opacity="1.000000" stroke="none" 
	d="
M578.464233,823.442627 
	C578.519470,823.407959 578.409058,823.477356 578.464233,823.442627 
z"/>
<path fill="#FDE7C1" opacity="1.000000" stroke="none" 
	d="
M673.009277,823.012634 
	C672.866577,823.142395 672.713440,823.259583 672.560303,823.376709 
	C672.604614,823.282227 672.648987,823.187744 672.833374,823.036072 
	C672.973389,822.978882 672.998779,823.000000 673.009277,823.012634 
z"/>
<path fill="#FDE7C1" opacity="1.000000" stroke="none" 
	d="
M671.474670,825.450562 
	C671.521851,825.422852 671.427490,825.478271 671.474670,825.450562 
z"/>
</svg>